<svg width="854" height="716" viewBox="0 0 854 716" fill="none" xmlns="http://www.w3.org/2000/svg">
<path d="M824.5 2.49999C835.3 5.69999 836.667 12.5 836 15.5C866.5 5.99998 857.5 85.5 801.5 164C801.216 164.362 800.933 164.724 800.649 165.085C732.5 251.922 672.49 302.508 670 304.5C678 320 680 331.5 681 334.5C682 337.5 685 336.5 684 339C683 341.5 684 353.5 686 356.5C688 359.5 690.5 360 688.5 365.5C686.5 371 687.5 382.5 687.5 384.5C687.5 386.5 689 389 686.5 393C684 397 687 403.5 687.5 405.5C688 407.5 686 410 684.5 412.5C683 415 685 421 685.5 424C686 427 680.5 428.5 681 439.5C681.5 450.5 680.5 445 676 452C671.5 459 674 461.5 672 468.5C670 475.5 669.5 485 669 488.5C668.5 492 666 495.5 663.5 501.5C661 507.5 659.5 521 657 525.5C654.5 530 651.5 543 646 548.5C640.5 554 637.5 544 636.5 541.5C635.5 539 636 523.5 636 522.5C636 521.5 637 514.5 638 509C639 503.5 638 501 637.5 500C637 499 638 496.5 638.5 496C639 495.5 637.5 483 637 479C636.5 475 636 474.5 634 472.5C632 470.5 631 463.5 631 461.5C631 459.5 632 454 631 450.5C630 447 629 441 627.5 439.5C626 438 625 436 625.5 434.5C626 433 627 431 625.5 428.5C624 426 626 425 624.5 420.5C623 416 624 410 624.5 401.5C625 393 623.5 395 620.5 391C617.5 387 621 379.5 622 377C623 374.5 621.5 368 622 362.5C621.5 355 620.5 345 620.5 343C620.5 341 618.5 342.5 618 342.5C474.5 432.5 398.5 445.5 274 481.5C149.5 517.5 144 550.5 139 554.5C134 558.5 125 584 130.5 585.5C136 587 137.5 586 156.5 595C222 634.5 224.5 684 225 688C225.5 692 224.5 692.5 222 688C219.5 683.5 212.5 681.5 211 679L210.864 678.772C209.295 676.154 205.883 670.456 202 669C198 667.5 196.5 670.5 191.5 663.5C186.5 656.5 184 659.5 180 658C176.8 656.8 172.333 652.833 170.5 651C169 650.833 164.3 650.5 157.5 650.5C149 650.5 150 648 148 646.5C146 645 145.5 649.5 133 649.5C123 649.5 115.5 643.167 113 640C112.167 641.167 109.3 644.6 104.5 649C98.5 654.5 84.5 654.5 81.5 655.5C78.5 656.5 77 657.5 75 657C73 656.5 65.5 665 61.5 666.5C58.3 667.7 50.8333 667.667 47.5 667.5C43.5 669.667 35 674.6 33 677C30.5 680 30.5 679 27 680.5C23.5 682 15.5 691 9.5 701C3.5 711 4 716 3 714.5C2 713 0.5 706 0.5 700.5C12.5 629 74 601 88 594C102 587 96.5 585 98 576C99.5 567 63 467.5 224 319C385 170.5 643.5 68 669 63.5C694.5 59 774.5 9.49999 785.5 5.99999C796.5 2.49999 811 -1.50001 824.5 2.49999Z" stroke="black"/>
</svg>
